<svg id="Calque_1" data-name="Calque 1" xmlns="http://www.w3.org/2000/svg" viewBox="0 0 99.36 83.36"><defs><style>.cls-1,.cls-5,.cls-6{fill:none;}.cls-1{stroke:#d1dcdf;stroke-width:0.3px;}.cls-1,.cls-2,.cls-3,.cls-4,.cls-6{stroke-miterlimit:10;}.cls-2{fill:#f5423a;}.cls-2,.cls-3,.cls-4,.cls-6{stroke:#000;}.cls-2,.cls-3,.cls-4{stroke-width:0.08px;}.cls-3{fill:#234a5d;}.cls-4{fill:#d1dcdf;}.cls-6{stroke-width:0.11px;}</style></defs><title>logo blanc</title><line class="cls-1" x1="0.14" y1="83.03" x2="20.32" y2="68.04"/><line class="cls-1" x1="61.69" y1="83.07" x2="82.01" y2="68.08"/><polyline class="cls-1" points="99.27 0.19 82.02 0.19 67.88 8.3 59.79 12.97 53.09 9.1"/><polyline class="cls-1" points="20.32 68.04 37.57 68.04 37.57 50.32 37.57 32.62 37.57 25.89 37.57 19.89 53.07 28.86 59.79 32.65 82.01 19.89"/><polyline class="cls-1" points="37.57 0.15 20.41 0.15 20.41 0.15 20.46 20.66 20.46 32.59 20.46 68.04"/><line class="cls-1" x1="53.09" y1="9.1" x2="37.5" y2="0.14"/><polyline class="cls-1" points="82.01 19.89 82.01 68.08 82.01 68.08 82.01 68.08 82.01 68.08 82.01 68.08 99.27 68.08"/><polyline class="cls-1" points="99.12 68.08 99.12 32.6 99.12 0.19"/><polyline class="cls-1" points="78.79 83.07 78.79 83.07 99.27 68.08"/><line class="cls-1" x1="17.25" y1="83.03" x2="37.57" y2="68.04"/><polygon class="cls-2" points="8.7 25.43 0.14 35.66 0.14 15.14 8.7 25.43"/><polygon class="cls-3" points="8.65 25.43 0.09 15.14 17.25 15.14 8.65 25.43"/><polygon class="cls-4" points="17.25 40.88 0.14 35.66 17.25 15.14 17.25 40.88"/><polygon class="cls-2" points="17.25 83.03 4.42 65.31 8.69 47.59 17.25 47.6 17.25 83.03"/><path class="cls-5" d="M264.77,462.3" transform="translate(-247.53 -379.27)"/><path class="cls-5" d="M256.22,426.87" transform="translate(-247.53 -379.27)"/><polygon class="cls-4" points="0.14 83.03 4.42 65.31 17.25 83.03 0.14 83.03"/><polygon class="cls-4" points="47.55 43.05 32.73 33.97 17.25 15.14 39.46 27.96 47.55 23.29 47.55 43.05"/><polygon class="cls-3" points="69.98 25.33 47.55 34.02 47.55 23.29 61.69 15.19 69.98 25.33"/><polygon class="cls-2" points="61.69 34.88 47.55 43.05 47.55 34.02 69.98 25.33 61.69 34.88"/><polygon class="cls-2" points="69.98 25.33 61.69 15.19 78.79 15.19 69.98 25.33"/><polygon class="cls-4" points="66.2 47.59 61.69 34.88 78.79 15.19 78.79 36.1 66.2 47.59"/><polygon class="cls-2" points="78.79 47.59 66.2 47.59 78.79 36.1 78.79 47.59"/><polygon class="cls-2" points="61.69 83.07 70.59 59.96 61.69 34.88 61.69 83.07"/><polygon class="cls-3" points="78.79 83.07 66.2 47.59 78.79 47.59 78.79 83.07"/><polyline class="cls-4" points="70.59 59.96 78.79 83.07 61.69 83.07"/><polygon class="cls-3" points="47.55 43.05 39.47 47.64 17.25 34.88 17.25 15.14 32.73 33.97 47.55 43.05"/><polygon class="cls-3" points="17.25 47.6 8.69 47.59 0.14 83.03 0.14 35.66 17.25 40.88 17.25 47.6"/><path class="cls-6" d="M247.66,394.41" transform="translate(-247.53 -379.27)"/><path class="cls-6" d="M267.94,379.42" transform="translate(-247.53 -379.27)"/><path class="cls-6" d="M264.77,394.41" transform="translate(-247.53 -379.27)"/><path class="cls-6" d="M285.1,379.42" transform="translate(-247.53 -379.27)"/><path class="cls-6" d="M329.54,379.47" transform="translate(-247.53 -379.27)"/><path class="cls-6" d="M309.21,394.46" transform="translate(-247.53 -379.27)"/><path class="cls-6" d="M346.79,379.47" transform="translate(-247.53 -379.27)"/><path class="cls-6" d="M326.32,394.46" transform="translate(-247.53 -379.27)"/><path class="cls-6" d="M264.77,414.16" transform="translate(-247.53 -379.27)"/><path class="cls-6" d="M256.23,404.71" transform="translate(-247.53 -379.27)"/></svg>